<?xml version="1.0" standalone="no"?>
<!DOCTYPE svg PUBLIC "-//W3C//DTD SVG 20010904//EN"
 "http://www.w3.org/TR/2001/REC-SVG-20010904/DTD/svg10.dtd">
<svg version="1.0" xmlns="http://www.w3.org/2000/svg"
 width="700.000000pt" height="700.000000pt" viewBox="0 0 700.000000 700.000000"
 preserveAspectRatio="xMidYMid meet">
<metadata>
Created by potrace 1.14, written by Peter Selinger 2001-2017
</metadata>
<g transform="translate(0.000000,700.000000) scale(0.100000,-0.100000)"
fill="#000000" stroke="none">
<path d="M3315 6690 c-451 -78 -808 -428 -897 -880 -13 -70 -17 -320 -6 -410
9 -74 51 -213 87 -293 88 -191 236 -358 426 -479 97 -62 227 -117 310 -132 16
-3 54 -11 84 -17 92 -20 340 -15 453 10 259 55 461 183 640 403 264 325 309
849 105 1228 -106 196 -293 378 -492 478 -69 34 -212 81 -270 88 -22 3 -47 8
-55 11 -39 14 -289 10 -385 -7z m370 -440 c128 -33 210 -78 308 -169 270 -251
286 -675 38 -953 -130 -144 -288 -217 -481 -223 -132 -4 -220 13 -325 65 -197
96 -342 285 -380 495 -11 60 -6 213 9 276 44 191 177 361 356 455 139 72 322
93 475 54z"/>
<path d="M879 4608 c-4 -9 -3 -3120 1 -3123 3 -2 68 -6 145 -9 77 -4 154 -8
170 -10 17 -2 59 -7 95 -10 36 -4 75 -8 85 -10 11 -2 40 -7 65 -10 179 -24
480 -102 690 -178 270 -98 566 -242 790 -386 162 -104 368 -252 454 -327 6 -5
37 -32 69 -59 l58 -48 27 23 c15 13 29 26 32 29 15 15 166 134 235 186 337
254 741 467 1144 605 123 42 331 101 406 115 11 2 40 8 65 14 57 12 152 28
210 35 25 3 61 7 80 10 106 14 272 24 400 25 l25 0 -1 1553 c-1 853 -2 1558
-3 1565 -1 10 -27 12 -117 8 -63 -3 -135 -8 -160 -11 -24 -3 -65 -8 -91 -11
-676 -79 -1406 -429 -2052 -983 -30 -25 -68 -59 -86 -76 -116 -107 -113 -105
-127 -92 -7 7 -56 51 -108 97 -606 543 -1322 917 -1965 1029 -106 18 -112 19
-171 26 -33 3 -79 8 -104 11 -52 6 -259 15 -261 12z m646 -517 c113 -28 255
-71 300 -91 11 -5 56 -24 100 -41 412 -167 904 -502 1443 -983 l134 -118 46
43 c25 24 53 51 62 59 13 13 59 54 230 204 196 172 551 426 789 564 236 138
572 287 757 337 32 9 66 18 74 20 49 14 197 45 211 45 16 0 17 -73 17 -1125 0
-619 -3 -1127 -6 -1129 -4 -2 -34 -7 -67 -10 -33 -4 -67 -9 -75 -11 -8 -2 -35
-6 -60 -9 -44 -6 -76 -11 -122 -20 -118 -24 -182 -38 -233 -51 -33 -9 -69 -19
-80 -21 -234 -56 -629 -215 -925 -371 -170 -90 -310 -174 -479 -287 l-142 -96
-122 84 c-395 271 -877 506 -1292 633 -83 25 -328 88 -380 98 -73 13 -275 45
-330 52 l-60 8 -1 1128 -2 1129 47 -6 c25 -3 100 -19 166 -35z"/>
</g>
</svg>
